<svg width="23" height="21" viewBox="0 0 23 21" fill="none" xmlns="http://www.w3.org/2000/svg">
<path d="M21.3492 3.8069L21.3549 3.8174L21.361 3.8277C21.5927 4.22332 21.7679 4.64948 21.8814 5.09374L21.8822 5.09651C22.0026 5.56019 22.06 6.03801 22.0526 6.51704L22.0525 6.52463L22.0525 6.53222C22.0583 7.43987 21.8193 8.33229 21.3608 9.11563L21.3563 9.1233L21.352 9.13109C21.1279 9.53739 20.8429 9.91241 20.5098 10.2399L20.5098 10.2399L20.5056 10.2441L11.5011 19.2485L2.49671 10.2441L2.4948 10.2422C2.15901 9.90894 1.8684 9.53311 1.63041 9.12428C1.41021 8.72443 1.23858 8.29968 1.11918 7.85909C1.00633 7.42492 0.949726 6.97741 0.949726 6.5278H0.949808L0.949644 6.51711C0.942329 6.03804 0.999674 5.56018 1.12013 5.09644L1.12017 5.09645L1.12203 5.08892C1.34677 4.18249 1.82058 3.357 2.48989 2.70574L2.48993 2.70578L2.49587 2.69985C2.98885 2.20852 3.57255 1.8176 4.21454 1.5488C5.50495 1.01986 6.95162 1.01967 8.24215 1.54823C8.83929 1.80145 9.38901 2.1542 9.86792 2.59135L9.9186 2.65217L9.93893 2.67657L9.96138 2.69902L11.0062 3.74379L11.5011 4.23877L11.9961 3.74379L13.0409 2.69902L13.0633 2.67657L13.0837 2.65218L13.1343 2.59136C13.6132 2.1542 14.163 1.80145 14.7601 1.54823C16.0506 1.01967 17.4973 1.01986 18.7877 1.54879C19.4297 1.81759 20.0134 2.20851 20.5064 2.69985L20.5063 2.69992L20.5145 2.70777C20.8475 3.02913 21.1291 3.39985 21.3492 3.8069Z" stroke="black" stroke-width="1.4"/>
</svg>
